<mxfile host="app.diagrams.net" agent="Mozilla/5.0 (Windows NT 10.0; Win64; x64) AppleWebKit/537.36 (KHTML, like Gecko) Chrome/134.0.0.0 Safari/537.36" version="26.1.3">
  <diagram name="Page-1" id="dciq36O4vefeJEJ59VlK">
    <mxGraphModel dx="1447" dy="819" grid="1" gridSize="10" guides="1" tooltips="1" connect="1" arrows="1" fold="1" page="1" pageScale="1" pageWidth="827" pageHeight="1169" math="0" shadow="0">
      <root>
        <mxCell id="0" />
        <mxCell id="1" parent="0" />
        <mxCell id="-3k7lm98skq2O4LZpteF-1" value="P1:&amp;nbsp;&lt;span style=&quot;background-color: transparent; color: light-dark(rgb(0, 0, 0), rgb(255, 255, 255));&quot;&gt;ParkingPrice&lt;/span&gt;" style="swimlane;whiteSpace=wrap;html=1;" parent="1" vertex="1">
          <mxGeometry x="150" y="20" width="170" height="90" as="geometry" />
        </mxCell>
        <mxCell id="-3k7lm98skq2O4LZpteF-20" value="Price" style="text;html=1;align=center;verticalAlign=middle;resizable=0;points=[];autosize=1;strokeColor=none;fillColor=none;" parent="-3k7lm98skq2O4LZpteF-1" vertex="1">
          <mxGeometry x="10" y="30" width="50" height="30" as="geometry" />
        </mxCell>
        <mxCell id="-3k7lm98skq2O4LZpteF-3" value="P2:&amp;nbsp;&lt;div&gt;ParkingLot&lt;/div&gt;" style="swimlane;whiteSpace=wrap;html=1;startSize=20;" parent="1" vertex="1">
          <mxGeometry x="110" y="260" width="180" height="100" as="geometry" />
        </mxCell>
        <mxCell id="-3k7lm98skq2O4LZpteF-26" value="Location" style="text;html=1;align=center;verticalAlign=middle;resizable=0;points=[];autosize=1;strokeColor=none;fillColor=none;" parent="-3k7lm98skq2O4LZpteF-3" vertex="1">
          <mxGeometry x="20" y="35" width="70" height="30" as="geometry" />
        </mxCell>
        <mxCell id="-3k7lm98skq2O4LZpteF-4" value="E1:&amp;nbsp;&lt;span style=&quot;background-color: transparent; color: light-dark(rgb(0, 0, 0), rgb(255, 255, 255));&quot;&gt;EntrancePanel&lt;/span&gt;" style="swimlane;whiteSpace=wrap;html=1;" parent="1" vertex="1">
          <mxGeometry x="310" y="140" width="160" height="90" as="geometry" />
        </mxCell>
        <mxCell id="-3k7lm98skq2O4LZpteF-5" value="T: ParkingTicket" style="swimlane;whiteSpace=wrap;html=1;" parent="1" vertex="1">
          <mxGeometry x="540" y="190" width="143" height="80" as="geometry" />
        </mxCell>
        <mxCell id="-3k7lm98skq2O4LZpteF-23" value="InTime&lt;div&gt;OutTime&lt;/div&gt;" style="text;html=1;align=center;verticalAlign=middle;resizable=0;points=[];autosize=1;strokeColor=none;fillColor=none;" parent="-3k7lm98skq2O4LZpteF-5" vertex="1">
          <mxGeometry x="13" y="30" width="70" height="40" as="geometry" />
        </mxCell>
        <mxCell id="-3k7lm98skq2O4LZpteF-6" value="V: Vehicle" style="swimlane;whiteSpace=wrap;html=1;" parent="1" vertex="1">
          <mxGeometry x="620" y="40" width="160" height="90" as="geometry" />
        </mxCell>
        <mxCell id="-3k7lm98skq2O4LZpteF-22" value="Licence Number&lt;br&gt;Vehicle Type" style="text;html=1;align=center;verticalAlign=middle;resizable=0;points=[];autosize=1;strokeColor=none;fillColor=none;" parent="-3k7lm98skq2O4LZpteF-6" vertex="1">
          <mxGeometry x="25" y="30" width="110" height="40" as="geometry" />
        </mxCell>
        <mxCell id="-3k7lm98skq2O4LZpteF-8" value="E2: ExitPanel" style="swimlane;whiteSpace=wrap;html=1;" parent="1" vertex="1">
          <mxGeometry x="390" y="330" width="170" height="80" as="geometry" />
        </mxCell>
        <mxCell id="-3k7lm98skq2O4LZpteF-25" value="FeeCalculate" style="text;html=1;align=center;verticalAlign=middle;resizable=0;points=[];autosize=1;strokeColor=none;fillColor=none;" parent="-3k7lm98skq2O4LZpteF-8" vertex="1">
          <mxGeometry x="20" y="30" width="90" height="30" as="geometry" />
        </mxCell>
        <mxCell id="-3k7lm98skq2O4LZpteF-9" value="S1: ParkingSpace" style="swimlane;whiteSpace=wrap;html=1;" parent="1" vertex="1">
          <mxGeometry x="260" y="535" width="160" height="75" as="geometry" />
        </mxCell>
        <mxCell id="-3k7lm98skq2O4LZpteF-24" value="AvailableSpace" style="text;html=1;align=center;verticalAlign=middle;resizable=0;points=[];autosize=1;strokeColor=none;fillColor=none;" parent="-3k7lm98skq2O4LZpteF-9" vertex="1">
          <mxGeometry x="10" y="35" width="110" height="30" as="geometry" />
        </mxCell>
        <mxCell id="-3k7lm98skq2O4LZpteF-10" value="A: Account" style="swimlane;whiteSpace=wrap;html=1;" parent="1" vertex="1">
          <mxGeometry x="620" y="450" width="140" height="85" as="geometry" />
        </mxCell>
        <mxCell id="n5ViiKNi4kM4uyPFqqo6-1" value="Name&lt;div&gt;Vehicle&lt;br&gt;Address&lt;/div&gt;" style="text;html=1;align=center;verticalAlign=middle;resizable=0;points=[];autosize=1;strokeColor=none;fillColor=none;" vertex="1" parent="-3k7lm98skq2O4LZpteF-10">
          <mxGeometry x="3" y="25" width="70" height="60" as="geometry" />
        </mxCell>
        <mxCell id="-3k7lm98skq2O4LZpteF-12" value="" style="endArrow=none;html=1;rounded=0;exitX=0.5;exitY=0;exitDx=0;exitDy=0;entryX=0.25;entryY=1;entryDx=0;entryDy=0;" parent="1" source="-3k7lm98skq2O4LZpteF-3" target="-3k7lm98skq2O4LZpteF-1" edge="1">
          <mxGeometry width="50" height="50" relative="1" as="geometry">
            <mxPoint x="160" y="220" as="sourcePoint" />
            <mxPoint x="210" y="170" as="targetPoint" />
          </mxGeometry>
        </mxCell>
        <mxCell id="-3k7lm98skq2O4LZpteF-13" value="" style="endArrow=none;html=1;rounded=0;exitX=1;exitY=0.5;exitDx=0;exitDy=0;entryX=0;entryY=0.5;entryDx=0;entryDy=0;" parent="1" source="-3k7lm98skq2O4LZpteF-3" target="-3k7lm98skq2O4LZpteF-8" edge="1">
          <mxGeometry width="50" height="50" relative="1" as="geometry">
            <mxPoint x="220" y="500" as="sourcePoint" />
            <mxPoint x="270" y="450" as="targetPoint" />
          </mxGeometry>
        </mxCell>
        <mxCell id="-3k7lm98skq2O4LZpteF-14" value="" style="endArrow=none;html=1;rounded=0;exitX=1;exitY=0.5;exitDx=0;exitDy=0;entryX=0;entryY=0.5;entryDx=0;entryDy=0;" parent="1" source="-3k7lm98skq2O4LZpteF-3" target="-3k7lm98skq2O4LZpteF-4" edge="1">
          <mxGeometry width="50" height="50" relative="1" as="geometry">
            <mxPoint x="320" y="260" as="sourcePoint" />
            <mxPoint x="454" y="395" as="targetPoint" />
          </mxGeometry>
        </mxCell>
        <mxCell id="-3k7lm98skq2O4LZpteF-15" value="" style="endArrow=none;html=1;rounded=0;exitX=1;exitY=0.5;exitDx=0;exitDy=0;entryX=0.25;entryY=1;entryDx=0;entryDy=0;" parent="1" source="-3k7lm98skq2O4LZpteF-8" target="-3k7lm98skq2O4LZpteF-5" edge="1">
          <mxGeometry width="50" height="50" relative="1" as="geometry">
            <mxPoint x="510" y="310" as="sourcePoint" />
            <mxPoint x="644" y="445" as="targetPoint" />
          </mxGeometry>
        </mxCell>
        <mxCell id="-3k7lm98skq2O4LZpteF-16" value="" style="endArrow=none;html=1;rounded=0;exitX=1;exitY=0.5;exitDx=0;exitDy=0;entryX=0;entryY=0.25;entryDx=0;entryDy=0;" parent="1" source="-3k7lm98skq2O4LZpteF-4" target="-3k7lm98skq2O4LZpteF-5" edge="1">
          <mxGeometry width="50" height="50" relative="1" as="geometry">
            <mxPoint x="540" y="200" as="sourcePoint" />
            <mxPoint x="590" y="150" as="targetPoint" />
          </mxGeometry>
        </mxCell>
        <mxCell id="-3k7lm98skq2O4LZpteF-17" value="" style="endArrow=none;html=1;rounded=0;entryX=0.5;entryY=1;entryDx=0;entryDy=0;exitX=1;exitY=0.5;exitDx=0;exitDy=0;" parent="1" source="-3k7lm98skq2O4LZpteF-5" target="-3k7lm98skq2O4LZpteF-6" edge="1">
          <mxGeometry width="50" height="50" relative="1" as="geometry">
            <mxPoint x="930" y="150" as="sourcePoint" />
            <mxPoint x="980" y="100" as="targetPoint" />
          </mxGeometry>
        </mxCell>
        <mxCell id="-3k7lm98skq2O4LZpteF-19" value="" style="endArrow=none;html=1;rounded=0;exitX=0.5;exitY=1;exitDx=0;exitDy=0;entryX=0.5;entryY=0;entryDx=0;entryDy=0;" parent="1" source="-3k7lm98skq2O4LZpteF-3" target="-3k7lm98skq2O4LZpteF-9" edge="1">
          <mxGeometry width="50" height="50" relative="1" as="geometry">
            <mxPoint x="590" y="540" as="sourcePoint" />
            <mxPoint x="195" y="460" as="targetPoint" />
            <Array as="points">
              <mxPoint x="250" y="430" />
              <mxPoint x="300" y="490" />
            </Array>
          </mxGeometry>
        </mxCell>
      </root>
    </mxGraphModel>
  </diagram>
</mxfile>
